<svg xmlns="http://www.w3.org/2000/svg" xmlns:xlink="http://www.w3.org/1999/xlink" width="170" height="170" viewBox="0 0 170 170">
  <defs>
    <filter id="Ellipse_2" x="0" y="0" width="170" height="170" filterUnits="userSpaceOnUse">
      <feOffset dy="5" input="SourceAlpha"/>
      <feGaussianBlur stdDeviation="15" result="blur"/>
      <feFlood flood-opacity="0.161"/>
      <feComposite operator="in" in2="blur"/>
      <feComposite in="SourceGraphic"/>
    </filter>
  </defs>
  <g id="left_arrow" data-name="left arrow" transform="translate(45 40)">
    <g transform="matrix(1, 0, 0, 1, -45, -40)" filter="url(#Ellipse_2)">
      <circle id="Ellipse_2-2" data-name="Ellipse 2" cx="40" cy="40" r="40" transform="translate(45 40)" fill="#fff"/>
    </g>
    <path id="Path_5" data-name="Path 5" d="M2.25-12.3a1.627,1.627,0,0,1-.492-1.2,1.627,1.627,0,0,1,.492-1.2l9.562-9.562a1.627,1.627,0,0,1,1.2-.492,1.627,1.627,0,0,1,1.2.492l1.547,1.617a1.627,1.627,0,0,1,.492,1.2,1.627,1.627,0,0,1-.492,1.2L9-13.5l6.75,6.75a1.627,1.627,0,0,1,.492,1.2,1.627,1.627,0,0,1-.492,1.2L14.2-2.742a1.627,1.627,0,0,1-1.2.492,1.627,1.627,0,0,1-1.2-.492Z" transform="translate(30.758 53.5)" fill="#004271"/>
  </g>
</svg>
