<svg xmlns="http://www.w3.org/2000/svg" width="46" height="46" viewBox="0 0 46 46">
  <g id="quote_icn" data-name="quote icn" transform="translate(-658 -4715)">
    <circle id="Ellipse_23" data-name="Ellipse 23" cx="23" cy="23" r="23" transform="translate(658 4715)" fill="#032943"/>
    <path id="Path_199" data-name="Path 199" d="M346.616,17.608c0,3.873,2.292,6.007,4.9,6.007a4.166,4.166,0,0,0,4.189-4.189,3.761,3.761,0,0,0-3.794-4.031c-.4,0-.948.079-1.027.079.237-2.529,2.529-5.691,5.058-7.351l-2.924-2.371A15.032,15.032,0,0,0,346.616,17.608Zm12.646,0c0,3.873,2.292,6.007,4.9,6.007a4.234,4.234,0,0,0,4.268-4.189,3.822,3.822,0,0,0-3.873-4.031c-.4,0-.948.079-1.027.079.316-2.529,2.529-5.691,5.058-7.351l-2.924-2.371A15.032,15.032,0,0,0,359.262,17.608Z" transform="translate(323.397 4723.317)" fill="#019bd9" opacity="0.8"/>
  </g>
</svg>
